<svg xmlns="http://www.w3.org/2000/svg" width="20" height="20" viewBox="0 0 20 20">
    <g fill="#BFC5D2" fill-rule="evenodd">
        <path d="M20 10c0-5.527-4.473-10-10-10S0 4.473 0 10c0 5.478 4.435 10 10 10 5.542 0 10-4.497 10-10zM10 1.172c4.868 0 8.828 3.96 8.828 8.828 0 1.78-.53 3.492-1.512 4.942-3.944-4.243-10.681-4.25-14.632 0-.982-1.45-1.512-3.161-1.512-4.942 0-4.868 3.96-8.828 8.828-8.828zM3.415 15.879c3.506-3.934 9.665-3.933 13.17 0-3.518 3.936-9.65 3.938-13.17 0z"/>
        <path d="M10 10.586c1.938 0 3.516-1.577 3.516-3.516V5.898c0-1.938-1.578-3.515-3.516-3.515S6.484 3.96 6.484 5.898V7.07c0 1.939 1.578 3.516 3.516 3.516zM7.656 5.898c0-1.292 1.052-2.343 2.344-2.343 1.292 0 2.344 1.051 2.344 2.343V7.07c0 1.293-1.052 2.344-2.344 2.344-1.292 0-2.344-1.051-2.344-2.344V5.898z"/>
    </g>
</svg>
