<svg xmlns="http://www.w3.org/2000/svg" width="18" height="16" viewBox="0 0 18 16">
    <g fill="#2E5BFF">
        <path d="M10.57 6.853c.877.877.877 2.298 0 3.175-.877.877-2.299.877-3.176 0-.877-.877-.877-2.298 0-3.175.877-.877 2.3-.877 3.176 0"/>
        <path d="M15.72 2.265h-1.552L13.044.019H4.92L3.797 2.266l-1.55.003C1.014 2.27.008 3.278.007 4.513L0 13.493c0 1.238 1.007 2.246 2.246 2.246h13.473c1.239 0 2.246-1.007 2.246-2.246V4.511c0-1.239-1.007-2.246-2.246-2.246zM8.981 12.932c-2.476 0-4.491-2.015-4.491-4.492 0-2.476 2.015-4.49 4.491-4.49 2.477 0 4.492 2.014 4.492 4.49 0 2.477-2.015 4.492-4.492 4.492z"/>
    </g>
</svg>
