<svg xmlns="http://www.w3.org/2000/svg" width="24" height="24" viewBox="0 0 24 24">
    <path fill="#BFC5D2" fill-rule="evenodd" d="M3.1 13.3h6.8c.442 0 .8.358.8.8v6.8c0 .442-.358.8-.8.8H3.1c-.442 0-.8-.358-.8-.8v-6.8c0-.442.358-.8.8-.8zm0-11h6.8c.442 0 .8.358.8.8v6.8c0 .442-.358.8-.8.8H3.1c-.442 0-.8-.358-.8-.8V3.1c0-.442.358-.8.8-.8zm11 0h6.8c.442 0 .8.358.8.8v6.8c0 .442-.358.8-.8.8h-6.8c-.442 0-.8-.358-.8-.8V3.1c0-.442.358-.8.8-.8zm0 11h6.8c.442 0 .8.358.8.8v6.8c0 .442-.358.8-.8.8h-6.8c-.442 0-.8-.358-.8-.8v-6.8c0-.442.358-.8.8-.8zm.65 1.45v5.5h5.5v-5.5h-5.5zm0-11v5.5h5.5v-5.5h-5.5zm-11 0v5.5h5.5v-5.5h-5.5zm0 11v5.5h5.5v-5.5h-5.5z"/>
</svg>
