<svg xmlns="http://www.w3.org/2000/svg" width="32" height="35" viewBox="0 0 32 35">
    <g fill="none" fill-rule="evenodd">
        <path fill="#BFC5D2" fill-rule="nonzero" d="M29.445 29.157c-3.557-1.536-3.693-8.127-3.695-8.294v-4.422c0-4.257-2.72-7.917-6.587-9.475C19.155 4.778 17.291 3 15 3c-2.29 0-4.155 1.778-4.163 3.966C6.97 8.524 4.25 12.184 4.25 16.441v4.422c-.003.166-.138 6.758-3.696 8.294-.405.175-.627.597-.534 1.012.094.416.478.713.923.713h9.018c.184.972.665 1.877 1.4 2.61C12.34 34.463 13.633 35 15 35c1.369 0 2.66-.536 3.637-1.509.736-.732 1.217-1.637 1.401-2.61h9.018c.445 0 .829-.296.923-.712.093-.415-.13-.837-.534-1.012zM24.759 26c.374 1.084.903 2.173 1.654 3.078H3.587c.75-.905 1.28-1.994 1.654-3.078h19.518zM15 4.805c1.036 0 1.912.665 2.186 1.573-.706-.14-1.437-.214-2.186-.214-.749 0-1.48.074-2.186.214.274-.908 1.15-1.573 2.186-1.573zM6.138 20.869V16.44c0-4.672 3.976-8.473 8.862-8.473 4.887 0 8.862 3.801 8.862 8.473v4.435c.001.136.023 1.562.4 3.318H5.738c.376-1.757.398-3.186.4-3.325zM15 33.195c-1.44 0-2.698-.993-3.101-2.313h6.203c-.404 1.32-1.661 2.313-3.102 2.313z"/>
        <circle cx="6" cy="6" r="5" fill="#2E5BFF" stroke="#FFF" stroke-width="2" transform="translate(20)"/>
    </g>
</svg>
