<svg xmlns="http://www.w3.org/2000/svg" width="24" height="24" viewBox="0 0 24 24">
    <path fill="#BFC5D2" fill-rule="evenodd" d="M13.953 2h-3.906c-.324 0-.586.312-.586.698v18.6c0 .386.262.698.586.698h3.906c.324 0 .586-.312.586-.697V2.698c0-.386-.262-.698-.586-.698zm-.586 18.601h-2.734v-6.975h2.734V20.6zm0-8.37h-2.734V3.395h2.734v8.836zm-6.875-1.86c.324 0 .586.312.586.697v10.23c0 .386-.262.698-.586.698H2.586c-.324 0-.586-.312-.586-.697v-10.23c0-.386.262-.698.586-.698h3.906zM5.906 20.6v-2.325H3.172v2.325h2.734zm0-3.72v-5.115H3.172v5.115h2.734zm15.508-6.51c.324 0 .586.312.586.697v10.23c0 .386-.262.698-.586.698h-3.906c-.324 0-.586-.312-.586-.697v-10.23c0-.386.262-.698.586-.698h3.906zm-.586 10.23v-2.325h-2.734v2.325h2.734zm0-3.72v-5.115h-2.734v5.115h2.734z"/>
</svg>
