<svg xmlns="http://www.w3.org/2000/svg" width="103" height="50" viewBox="0 0 103 50">
    <g fill="none" fill-rule="evenodd">
        <g>
            <g fill="#00AEEF">
                <path d="M3.886 5.727c1.205 0 1.99-.824 1.99-2.075 0-1.272-.785-2.075-1.99-2.075-1.227 0-2.002.803-2.002 2.075 0 1.251.775 2.075 2.002 2.075m0 1.587C1.744 7.314 0 5.798 0 3.652 0 1.505 1.744 0 3.886 0 6.038 0 7.75 1.505 7.75 3.652c0 2.146-1.723 3.662-3.864 3.662M15.328.102L15.328 7.242 13.488 7.242 10.409 2.838 10.409 7.242 8.569 7.242 8.569.102 10.409.102 13.488 4.526 13.488.102zM18.504.102L18.504 5.9 20.915 5.9 20.915 7.242 16.664 7.242 16.664.102zM21.798 7.242L23.639 7.242 23.639.102 21.798.102zM31.733.102L31.733 7.242 29.892 7.242 26.814 2.838 26.814 7.242 24.973 7.242 24.973.102 26.814.102 29.892 4.526 29.892.102zM37.697 1.495L34.909 1.495 34.909 2.94 37.374 2.94 37.374 4.282 34.909 4.282 34.909 5.849 37.697 5.849 37.697 7.242 33.068 7.242 33.068.102 37.697.102z" transform="translate(19.518 16.024) translate(44.952 16.184)"/>
            </g>
            <g fill="#2E3191">
                <path d="M22.154 12.323c-1.216.636-2.918 1.06-4.601 1.06-4.34 0-7.388-2.774-7.388-6.539 0-3.782 3.086-6.645 7.406-6.645 1.665 0 3.105.424 4.152.972v2.828c-1.14-.743-2.618-1.273-4.095-1.273-2.731 0-4.49 1.82-4.49 4.1 0 2.227 1.684 4.1 4.47 4.1.618 0 1.217-.105 1.666-.282V8.718h-2.357V6.385h5.237v5.938zM23.973.393L32.333.393 32.333 2.85 26.947 2.85 26.947 5.359 31.585 5.359 31.585 7.692 26.947 7.692 26.947 10.732 32.539 10.732 32.539 13.189 23.973 13.189zM38.597 2.85L34.22 2.85 34.22.393 45.947.393 45.947 2.85 41.571 2.85 41.571 13.189 38.597 13.189zM47.461.393L50.435.393 50.435 5.342 56.289 5.342 56.289.393 59.263.393 59.263 13.189 56.289 13.189 56.289 7.798 50.435 7.798 50.435 13.189 47.461 13.189zM61.022.393L69.382.393 69.382 2.85 63.995 2.85 63.995 5.359 68.633 5.359 68.633 7.692 63.995 7.692 63.995 10.732 69.588 10.732 69.588 13.189 61.022 13.189zM75.629 6.031c.804 0 1.421-.088 1.87-.3.505-.248.767-.672.767-1.29 0-.601-.225-.99-.767-1.256-.467-.23-1.197-.335-2.225-.335h-1.142V6.03h1.497zM71.159.393h4.245c1.609 0 3.124.212 4.208.848.992.584 1.628 1.538 1.628 3.005 0 1.644-.954 2.987-2.75 3.535l3.816 5.408h-3.423l-3.422-5.055h-1.329v5.055H71.16V.393z" transform="translate(19.518 16.024)"/>
                <path fill-rule="nonzero" d="M.251 11.233l4.612-4.885c.399-.386.707-.772.924-1.158.217-.386.326-.778.326-1.175 0-.17-.036-.338-.106-.505-.07-.166-.172-.315-.304-.447s-.293-.237-.484-.316c-.19-.079-.406-.118-.647-.118-.287 0-.538.045-.752.136-.214.09-.393.215-.537.373-.144.157-.254.342-.33.552-.076.21-.117.433-.123.667H.18c0-.69.115-1.306.344-1.847.229-.54.544-.997.946-1.368.402-.371.873-.653 1.413-.846C3.423.103 4 .006 4.616.006c.581 0 1.134.088 1.66.263.525.176.988.433 1.39.772.402.34.72.757.955 1.255.235.497.352 1.07.352 1.719 0 .52-.107 1-.321 1.442-.214.442-.503.864-.867 1.268L3.983 10.82h4.972v2.692H.251v-2.28z" transform="translate(19.518 16.024)"/>
            </g>
        </g>
        <path fill="#2B3990" d="M4.153 37.211L0 37.211 7.166 24.744 0 12.238 4.153 12.238 11.32 24.744z"/>
        <path fill="#00AEEF" d="M9.722 37.211L5.569 37.211 12.734 24.744 5.569 12.238 9.722 12.238 16.888 24.744z"/>
        <path fill="#2B3990" d="M21.539 0L15.184 11.056 19.337 11.056 23.641 3.57z"/>
        <path fill="#00AEEF" d="M24.287 4.668L20.615 11.056 24.769 11.056 26.389 8.238z"/>
        <path fill="#2B3990" d="M21.539 49.507L15.184 38.452 19.337 38.452 23.641 45.938z"/>
        <path fill="#00AEEF" d="M24.287 44.84L20.615 38.452 24.769 38.452 26.389 41.27z"/>
    </g>
</svg>
