<svg xmlns="http://www.w3.org/2000/svg" width="16" height="16" viewBox="0 0 16 16">
    <path fill="#8798AD" fill-rule="evenodd" d="M14.964 1.036c-1.378-1.381-3.617-1.381-4.995 0L.812 10.19c-.071.072-.115.164-.13.263l-.678 5.025c-.02.144.031.287.13.386.085.085.205.136.324.136.02 0 .04 0 .061-.003l3.028-.41c.252-.034.43-.265.395-.518-.034-.252-.266-.43-.518-.395L.997 15l.473-3.505 3.689 3.69c.085.084.205.136.324.136.12 0 .239-.048.324-.137l9.157-9.154C15.632 5.362 16 4.476 16 3.53c0-.944-.368-1.83-1.036-2.495zM10.147 2.16l1.537 1.537-8.356 8.357-1.537-1.537 8.356-8.357zM5.487 14.21l-1.504-1.504 8.356-8.356 1.503 1.503-8.356 8.357zm8.996-9.015l-3.678-3.679c.467-.385 1.05-.596 1.663-.596.699 0 1.354.272 1.848.763s.764 1.15.764 1.848c0 .618-.212 1.197-.597 1.664z"/>
</svg>
