<svg xmlns="http://www.w3.org/2000/svg" width="22" height="22" viewBox="0 0 22 22">
    <g fill="#BFC5D2" fill-rule="evenodd">
        <path d="M9.149 22C4.104 22 0 17.896 0 12.851c0-5.044 4.104-9.149 9.149-9.149 5.044 0 9.149 4.105 9.149 9.15 0 5.044-4.105 9.148-9.15 9.148zm0-16.925c-4.288 0-7.777 3.488-7.777 7.776s3.489 7.777 7.777 7.777 7.776-3.489 7.776-7.777-3.488-7.776-7.776-7.776z"/>
        <path d="M9.149 18.798c-3.28 0-5.947-2.668-5.947-5.947S5.87 6.904 9.15 6.904s5.947 2.668 5.947 5.947c0 3.28-2.668 5.947-5.947 5.947zm0-10.521c-2.523 0-4.575 2.052-4.575 4.574 0 2.523 2.052 4.575 4.575 4.575 2.522 0 4.574-2.052 4.574-4.575 0-2.522-2.052-4.574-4.574-4.574z"/>
        <path d="M9.149 15.596c-1.513 0-2.745-1.232-2.745-2.745 0-1.513 1.232-2.744 2.745-2.744 1.513 0 2.744 1.231 2.744 2.744 0 1.513-1.231 2.745-2.744 2.745zm0-4.117c-.757 0-1.373.616-1.373 1.372 0 .757.616 1.373 1.373 1.373.756 0 1.372-.616 1.372-1.373 0-.756-.616-1.372-1.372-1.372z"/>
        <path d="M9.149 13.537c-.176 0-.352-.066-.485-.2-.268-.269-.268-.704 0-.972l6.862-6.861c.268-.268.702-.268.97 0s.268.702 0 .97l-6.861 6.862c-.135.135-.31.201-.486.201z"/>
        <path d="M18.526 6.447H16.24c-.379 0-.686-.307-.686-.686V3.474c0-.182.072-.357.201-.485L18.5.244c.197-.197.491-.255.747-.149.256.106.424.357.424.634V2.33h1.601c.277 0 .528.168.634.424.106.256.048.551-.15.747l-2.744 2.745c-.128.129-.303.201-.485.201zm-1.6-1.372h1.316l1.372-1.373h-.63c-.379 0-.686-.307-.686-.686v-.63l-1.373 1.372v1.317z"/>
    </g>
</svg>
