<svg xmlns="http://www.w3.org/2000/svg" width="21" height="21" viewBox="0 0 21 21">
    <g fill="none">
        <path fill="#FBBB00" d="M4.654 12.69l-.73 2.73-2.673.056C.453 13.995 0 12.3 0 10.5c0-1.741.423-3.383 1.174-4.829l2.38.436 1.041 2.365c-.218.635-.337 1.318-.337 2.028 0 .77.14 1.51.396 2.19z"/>
        <path fill="#518EF8" d="M20.817 8.538c.12.636.183 1.292.183 1.962 0 .752-.079 1.485-.23 2.192-.51 2.407-1.846 4.509-3.697 5.996l-2.996-.153-.424-2.647c1.228-.72 2.187-1.847 2.692-3.196h-5.614V8.538H20.817z"/>
        <path fill="#28B446" d="M17.073 18.688C15.274 20.135 12.988 21 10.5 21c-3.999 0-7.475-2.235-9.249-5.524l3.403-2.785c.887 2.366 3.17 4.05 5.846 4.05 1.15 0 2.228-.31 3.153-.853l3.42 2.8z"/>
        <path fill="#F14336" d="M17.202 2.417l-3.401 2.785c-.958-.598-2.089-.944-3.301-.944-2.737 0-5.063 1.762-5.905 4.214l-3.42-2.8h-.001C2.922 2.301 6.442 0 10.5 0c2.548 0 4.884.908 6.702 2.417z"/>
    </g>
</svg>
