<svg xmlns="http://www.w3.org/2000/svg" width="25" height="25" viewBox="0 0 25 25">
    <defs>
        <linearGradient id="prefix__a" x1="8.392%" x2="91.608%" y1="91.608%" y2="8.391%">
            <stop offset="0%" stop-color="#FFD600"/>
            <stop offset="50%" stop-color="#FF0100"/>
            <stop offset="100%" stop-color="#D800B9"/>
        </linearGradient>
        <linearGradient id="prefix__b" x1="14.645%" x2="85.355%" y1="85.355%" y2="14.645%">
            <stop offset="0%" stop-color="#FF6400"/>
            <stop offset="50%" stop-color="#FF0100"/>
            <stop offset="100%" stop-color="#FD0056"/>
        </linearGradient>
        <linearGradient id="prefix__c" x1="14.647%" x2="85.355%" y1="85.354%" y2="14.647%">
            <stop offset="0%" stop-color="#F30072"/>
            <stop offset="100%" stop-color="#E50097"/>
        </linearGradient>
    </defs>
    <g fill="none">
        <path fill="url(#prefix__a)" d="M24.925 7.346c-.061-1.33-.272-2.239-.581-3.034-.314-.834-.806-1.59-1.442-2.214-.624-.636-1.38-1.128-2.214-1.442-.795-.309-1.704-.52-3.034-.58C16.32.014 15.894 0 12.5 0 9.105 0 8.68.014 7.346.075c-1.33.061-2.239.272-3.034.581-.834.314-1.59.806-2.214 1.442C1.462 2.722.97 3.478.656 4.312c-.309.795-.52 1.704-.58 3.034C.014 8.68 0 9.106 0 12.5c0 3.395.014 3.82.076 5.154.06 1.33.272 2.239.58 3.034.314.834.806 1.59 1.442 2.214.625.636 1.38 1.128 2.214 1.441.795.31 1.704.52 3.035.582 1.333.06 1.758.075 5.153.075 3.395 0 3.82-.014 5.154-.075 1.33-.061 2.239-.272 3.034-.582 1.68-.649 3.006-1.976 3.656-3.655.309-.795.52-1.704.58-3.034.062-1.334.076-1.76.076-5.154 0-3.395-.014-3.82-.075-5.154zm-2.25 10.205c-.056 1.219-.26 1.88-.43 2.321-.421 1.09-1.283 1.952-2.373 2.373-.44.17-1.102.374-2.321.43-1.318.06-1.713.073-5.051.073s-3.733-.013-5.051-.073c-1.219-.056-1.88-.26-2.321-.43-.543-.2-1.034-.52-1.437-.936-.416-.403-.735-.894-.936-1.437-.17-.44-.374-1.102-.43-2.32-.06-1.319-.073-1.714-.073-5.052 0-3.338.013-3.733.073-5.051.056-1.219.26-1.88.43-2.321.2-.543.52-1.034.936-1.437.403-.416.894-.735 1.437-.935.44-.172 1.102-.375 2.321-.43 1.318-.061 1.713-.074 5.051-.074 3.337 0 3.733.013 5.051.073 1.219.056 1.88.26 2.321.43.543.201 1.034.52 1.437.936.416.403.735.894.935 1.437.172.44.375 1.102.43 2.321.06 1.318.074 1.713.074 5.051s-.013 3.733-.073 5.051z"/>
        <path fill="url(#prefix__b)" d="M12.5 6.081c-3.545 0-6.419 2.874-6.419 6.419 0 3.545 2.874 6.419 6.419 6.419 3.545 0 6.419-2.874 6.419-6.419 0-3.545-2.874-6.419-6.42-6.419zm0 10.586c-2.301 0-4.167-1.866-4.167-4.167 0-2.301 1.866-4.167 4.167-4.167 2.301 0 4.167 1.866 4.167 4.167 0 2.301-1.866 4.167-4.167 4.167z"/>
        <path fill="url(#prefix__c)" d="M20.672 5.828c0 .828-.671 1.5-1.5 1.5-.828 0-1.5-.672-1.5-1.5 0-.829.672-1.5 1.5-1.5.829 0 1.5.671 1.5 1.5z"/>
    </g>
</svg>
