<svg xmlns="http://www.w3.org/2000/svg" width="23" height="23" viewBox="0 0 23 23">
    <path fill="#2E384D" d="M21.683 15.649c.47-.6.696-1.244.668-1.907-.03-.73-.356-1.3-.625-1.651.312-.778.433-2.003-.61-2.953-.763-.697-2.06-1.009-3.855-.922-1.263.057-2.32.293-2.363.302h-.004c-.24.043-.495.096-.754.154-.02-.307.033-1.071.6-2.79.672-2.045.634-3.61-.125-4.658-.797-1.1-2.07-1.186-2.444-1.186-.36 0-.691.15-.927.423-.533.62-.47 1.762-.403 2.29-.634 1.7-2.41 5.868-3.913 7.025-.03.02-.053.043-.077.067-.442.466-.74.97-.941 1.412-.284-.154-.605-.24-.951-.24h-2.93c-1.103 0-1.997.898-1.997 1.998v7.802c0 1.105.898 1.998 1.998 1.998h2.929c.427 0 .826-.135 1.152-.365l1.129.134c.173.024 3.246.413 6.4.35.572.044 1.11.068 1.609.068.86 0 1.608-.067 2.233-.202 1.469-.312 2.473-.936 2.982-1.853.388-.701.388-1.397.326-1.84.956-.863 1.124-1.819 1.09-2.491-.02-.39-.106-.72-.197-.965zM2.03 21.516c-.389 0-.701-.317-.701-.7v-7.808c0-.39.317-.701.7-.701h2.93c.389 0 .701.317.701.7v7.803c0 .39-.317.701-.701.701h-2.93v.005zm18.424-6.43c-.202.212-.24.534-.087.784 0 .004.197.34.221.801.034.63-.269 1.186-.902 1.662-.226.173-.317.47-.221.74 0 .004.206.638-.13 1.238-.322.576-1.037.99-2.122 1.22-.87.187-2.05.22-3.5.105h-.068c-3.087.068-6.208-.336-6.242-.34h-.005l-.485-.058c.029-.135.043-.279.043-.423v-7.807c0-.207-.033-.408-.09-.596.086-.321.326-1.037.892-1.647 2.156-1.709 4.264-7.476 4.355-7.726.039-.1.048-.21.03-.321-.082-.538-.054-1.196.062-1.393.254.005.94.077 1.354.648.49.678.47 1.888-.058 3.491-.807 2.444-.874 3.731-.235 4.298.317.283.74.297 1.047.187.292-.067.571-.125.835-.168l.062-.014c1.475-.322 4.116-.519 5.033.317.778.71.225 1.651.163 1.752-.178.269-.125.62.115.836.005.004.51.48.533 1.118.02.428-.182.865-.6 1.297z"/>
</svg>
