<svg xmlns="http://www.w3.org/2000/svg" width="22" height="22" viewBox="0 0 22 22">
    <g fill="none" fill-rule="evenodd" transform="translate(1 1)">
        <circle cx="10" cy="10" r="10" stroke="#2E384D"/>
        <path fill="#2E384D" fill-rule="nonzero" d="M11.423 5v4.277c0 .459-.028.914-.082 1.365-.055.451-.128.911-.217 1.38h-1.57c-.09-.469-.163-.929-.217-1.38-.055-.451-.083-.906-.083-1.365V5h2.169zM9 14.721c0-.18.034-.346.101-.5.067-.155.16-.29.277-.405.117-.114.255-.205.415-.272.16-.068.334-.101.523-.101.185 0 .357.033.516.1.16.068.3.159.419.273.12.115.213.25.28.404.068.155.101.322.101.501 0 .18-.033.348-.1.505-.068.157-.162.293-.281.408-.12.114-.26.204-.419.269-.16.065-.331.097-.516.097-.19 0-.364-.032-.523-.097-.16-.065-.298-.155-.415-.27-.118-.114-.21-.25-.277-.407-.067-.157-.101-.325-.101-.505z"/>
    </g>
</svg>
