<svg xmlns="http://www.w3.org/2000/svg" width="18" height="19" viewBox="0 0 18 19">
    <path fill="#2E384D" d="M14.4 12.206c-1.085 0-2.052.521-2.67 1.326l-5.18-2.916c.121-.35.188-.73.188-1.12 0-.394-.067-.77-.192-1.124l5.176-2.912c.614.809 1.585 1.334 2.674 1.334 1.855 0 3.37-1.523 3.37-3.397 0-1.874-1.51-3.397-3.37-3.397s-3.371 1.523-3.371 3.397c0 .394.066.773.192 1.124L6.045 7.433C5.43 6.62 4.459 6.099 3.37 6.099 1.515 6.1 0 7.622 0 9.496c0 1.874 1.515 3.397 3.375 3.397 1.088 0 2.059-.525 2.678-1.338l5.175 2.916c-.125.355-.195.738-.195 1.132 0 1.87 1.51 3.397 3.37 3.397s3.371-1.523 3.371-3.397c0-1.874-1.515-3.397-3.375-3.397zm0-11.137c1.276 0 2.313 1.046 2.313 2.332 0 1.286-1.037 2.331-2.314 2.331-1.276 0-2.313-1.045-2.313-2.331s1.041-2.332 2.313-2.332zM3.374 11.828c-1.277 0-2.314-1.046-2.314-2.332 0-1.286 1.037-2.332 2.314-2.332 1.276 0 2.314 1.046 2.314 2.332 0 1.286-1.042 2.332-2.314 2.332zm11.024 6.103c-1.276 0-2.313-1.046-2.313-2.332 0-1.286 1.037-2.331 2.313-2.331 1.277 0 2.314 1.045 2.314 2.331s-1.037 2.332-2.314 2.332z"/>
</svg>
