<svg xmlns="http://www.w3.org/2000/svg" width="25" height="21" viewBox="0 0 25 21">
    <path fill="#1DA1F2" d="M7.893 20.266c9.372 0 14.497-7.764 14.497-14.497 0-.22-.005-.44-.015-.658.995-.72 1.86-1.617 2.542-2.639-.913.406-1.896.68-2.926.802 1.052-.63 1.86-1.628 2.24-2.818-.984.584-2.074 1.008-3.235 1.237-.93-.99-2.253-1.61-3.72-1.61-2.813 0-5.094 2.282-5.094 5.095 0 .4.044.788.132 1.161-4.235-.213-7.99-2.24-10.502-5.323-.438.753-.69 1.628-.69 2.56 0 1.769.9 3.33 2.267 4.242-.836-.026-1.621-.255-2.308-.637v.065c0 2.467 1.756 4.527 4.087 4.994-.428.117-.878.18-1.343.18-.328 0-.647-.033-.958-.092.649 2.024 2.53 3.497 4.76 3.539-1.744 1.366-3.94 2.18-6.328 2.18-.411 0-.817-.023-1.216-.07 2.255 1.445 4.933 2.289 7.81 2.289"/>
</svg>
