<svg xmlns="http://www.w3.org/2000/svg" width="27" height="19" viewBox="0 0 27 19">
    <g fill="none">
        <path fill="#F44336" d="M25.852 1.748C25.12.475 24.325.241 22.707.152 21.09.045 17.025 0 13.503 0c-3.528 0-7.595.045-9.21.15-1.615.09-2.411.323-3.15 1.598C.387 3.02 0 5.21 0 9.066V9.08c0 3.84.388 6.047 1.142 7.305.74 1.273 1.534 1.504 3.15 1.612 1.616.092 5.683.146 9.211.146 3.522 0 7.587-.054 9.206-.145 1.618-.107 2.413-.338 3.145-1.611C26.615 15.127 27 12.92 27 9.08v-.008-.005c0-3.858-.385-6.048-1.148-7.32z"/>
        <path fill="#FAFAFA" d="M10.125 14.019L10.125 4.123 18.563 9.071z"/>
    </g>
</svg>
